<?xml version="1.0" encoding="utf-8"?>
<!-- Generator: Adobe Illustrator 23.0.6, SVG Export Plug-In . SVG Version: 6.00 Build 0)  -->
<svg version="1.1" id="图层_1" xmlns="http://www.w3.org/2000/svg" xmlns:xlink="http://www.w3.org/1999/xlink" x="0px" y="0px"
	 viewBox="0 0 52 60" style="enable-background:new 0 0 52 60;" xml:space="preserve">
<style type="text/css">
	.st0{fill:#929DC6;}
</style>
<g id="页面2">
	<g id="教学楼1层" transform="translate(-64.000000, -345.000000)">
		<g id="告警数量-copy-2" transform="translate(50.000000, 127.000000)">
			<path id="形状" class="st0" d="M26,232.2c0.7-0.9,1.5-1.7,2.4-2.5l-4.3-4.2c-0.7-0.7-1.8-0.7-2.5,0c-0.7,0.7-0.7,1.7,0,2.4
				L26,232.2L26,232.2z M40,225.4C40,225.4,40,225.4,40,225.4c0.6,0,1.2,0,1.7,0.1v-5.8c0-0.9-0.8-1.7-1.7-1.7c-1,0-1.7,0.8-1.7,1.7
				v5.8C38.8,225.4,39.4,225.4,40,225.4C40,225.4,40,225.4,40,225.4L40,225.4z M54,232.2l4.4-4.3c0.7-0.7,0.7-1.7,0-2.4
				c-0.7-0.7-1.8-0.7-2.5,0l-4.3,4.2C52.5,230.5,53.3,231.3,54,232.2L54,232.2z M21.7,244.3c0-0.8,0.1-1.6,0.2-2.4h-6.2
				c-1,0-1.7,0.8-1.7,1.7c0,0.9,0.8,1.7,1.7,1.7h6C21.7,245,21.7,244.7,21.7,244.3L21.7,244.3z M64.3,241.9h-6.2
				c0.1,0.8,0.2,1.6,0.2,2.4c0,0.3,0,0.7,0,1h6c1,0,1.7-0.8,1.7-1.7S65.2,241.9,64.3,241.9L64.3,241.9z M54.9,255.9
				c-0.7,1-1.5,1.9-2.2,2.7l3.2,3.1c0.7,0.7,1.8,0.7,2.5,0c0.7-0.7,0.7-1.7,0-2.4L54.9,255.9L54.9,255.9z M21.6,259.3
				c-0.7,0.7-0.7,1.7,0,2.4c0.7,0.7,1.8,0.7,2.5,0l3.2-3.1c-0.7-0.8-1.5-1.7-2.2-2.7L21.6,259.3L21.6,259.3z M55.9,244.3
				c0-3.5-1.2-6.8-3.2-9.4c-1.8-2.3-4.2-4.1-7-5.2l0-0.1l-1.2-0.3c-0.9-0.3-1.9-0.4-2.8-0.5l-0.1,0h0l0,0c-0.5,0-1-0.1-1.5-0.1H40
				c-0.5,0-1,0-1.5,0.1l0,0l-0.1,0c-1,0.1-1.9,0.3-2.8,0.5l-1.2,0.3l0,0.1c-2.8,1.1-5.2,2.9-7,5.2c-2,2.6-3.2,5.9-3.2,9.4
				c0,2.5,0.4,4.6,1.1,6.4c1,2.6,2.6,4.3,3.9,5.7c0.6,0.7,1.2,1.2,1.6,1.7c0.4,0.5,0.6,0.9,0.6,1.2c0.3,1.5,0.3,3.3,0.3,3.7v0.1
				c0,2.1,1.7,3.8,3.9,3.8h8.9c2.1,0,3.9-1.7,3.9-3.8V263c0-0.5,0-2.3,0.3-3.7c0-0.2,0.1-0.4,0.3-0.7c0.3-0.5,0.9-1.1,1.6-1.8
				c1.1-1.1,2.4-2.5,3.5-4.5C55.1,250.2,55.9,247.7,55.9,244.3L55.9,244.3z M52.2,249.7c-0.9,2.1-2.1,3.5-3.4,4.8
				c-0.6,0.6-1.2,1.2-1.7,1.9c-0.5,0.7-1,1.4-1.2,2.3c-0.3,1.8-0.4,3.7-0.4,4.2c0,0.1,0,0.1,0,0.1c0,0.6-0.5,1.1-1.2,1.1h-8.9
				c-0.3,0-0.6-0.1-0.8-0.3c-0.2-0.2-0.3-0.5-0.3-0.8c0,0,0-0.1,0-0.1c0-0.6,0-2.5-0.4-4.2c-0.1-0.6-0.4-1.1-0.7-1.6
				c-0.5-0.8-1.2-1.5-1.9-2.3c-1.1-1.1-2.2-2.3-3.1-3.9c-0.9-1.6-1.5-3.7-1.5-6.6c0-3,1-5.7,2.7-7.8c1.7-2.2,4-3.8,6.8-4.6l0.3-0.1
				c0.7-0.2,1.3-0.3,2-0.4h0l0.1,0c0.4,0,0.8-0.1,1.2-0.1l0.1,0l0.1,0c0.4,0,0.8,0,1.2,0.1h0l0.1,0h0c0.7,0.1,1.4,0.2,2,0.4l0.3,0.1
				c2.7,0.8,5.1,2.5,6.8,4.6c1.7,2.2,2.7,4.9,2.7,7.8C53.2,246.6,52.8,248.3,52.2,249.7L52.2,249.7z M44.4,268h-8.8
				c-0.9,0-1.7,0.7-1.7,1.6c0,0.9,0.7,1.6,1.7,1.6h8.8c0.9,0,1.7-0.7,1.7-1.6C46.1,268.7,45.3,268,44.4,268z M44.4,272.1h-8.8
				c-0.9,0-1.7,0.7-1.7,1.6c0,0.9,0.7,1.6,1.7,1.6h8.8c0.9,0,1.7-0.7,1.7-1.6C46.1,272.8,45.3,272.1,44.4,272.1z M40.8,276.2h-4.5
				c0,0,0,0.1,0,0.1c0,0.9,1.4,1.6,2.7,1.6h2.2c1.3,0,2.7-0.7,2.7-1.6c0-0.1,0-0.1,0-0.1H40.8L40.8,276.2z"/>
		</g>
	</g>
</g>
</svg>
