<?xml version="1.0" encoding="utf-8"?>
<!-- Generator: Adobe Illustrator 23.0.6, SVG Export Plug-In . SVG Version: 6.00 Build 0)  -->
<svg version="1.1" id="图层_1" xmlns="http://www.w3.org/2000/svg" xmlns:xlink="http://www.w3.org/1999/xlink" x="0px" y="0px"
	 viewBox="0 0 60 50" style="enable-background:new 0 0 60 50;" xml:space="preserve">
<style type="text/css">
	.st0{fill:#929DC6;}
</style>
<g id="页面2">
	<g id="教学楼1层" transform="translate(-60.000000, -476.000000)">
		<g id="告警数量-copy-2" transform="translate(50.000000, 127.000000)">
			<g id="编组" transform="translate(10.000000, 349.000000)">
				<path id="路径" class="st0" d="M48,10c0,1.1,0.9,2,2,2s2-0.9,2-2s-0.9-2-2-2S48,8.9,48,10z"/>
				<path id="形状" class="st0" d="M56,0C54.7,0,37.3,0,4,0C2,0,0,2,0,4v20c0,2,2,4,4,4h52c2,0,4-2,4-4c0-12,0-18.7,0-20
					C60,2,58,0,56,0z M5,3c1,0,49,0,50,0s2,1,2,2c0,0.7,0,4,0,10H3C3,9,3,5.7,3,5C3,4,4,3,5,3z M5,25c-1,0-2-1-2-2c0-0.7,0-2.3,0-5
					h54v5c0,1-1,2-2,2C22.3,25,5.7,25,5,25z"/>
				<path class="st0" d="M10.5,31C7.1,31,5,33.1,5,36.5c0,1.9,0.6,3.1,2.5,5.6C8.7,43.6,9,44,9,44.5C9,46.1,7.8,47,6.5,47
					C5.7,47,5,47.7,5,48.5S5.7,50,6.5,50c2.8,0,5.5-2,5.5-5.5c0-1.4-0.5-2.3-2.1-4.3C8.3,38.2,8,37.6,8,36.5c0-1.7,0.8-2.5,2.5-2.5
					c0.8,0,1.5-0.7,1.5-1.5S11.3,31,10.5,31z"/>
				<path id="路径备份" class="st0" d="M24.5,31c-3.4,0-5.5,2.1-5.5,5.5c0,1.9,0.6,3.1,2.5,5.6c1.2,1.5,1.5,2,1.5,2.4
					c0,1.6-1.2,2.5-2.5,2.5c-0.8,0-1.5,0.7-1.5,1.5s0.7,1.5,1.5,1.5c2.8,0,5.5-2,5.5-5.5c0-1.4-0.5-2.3-2.1-4.3
					c-1.6-1.9-1.9-2.6-1.9-3.7c0-1.7,0.8-2.5,2.5-2.5c0.8,0,1.5-0.7,1.5-1.5S25.3,31,24.5,31z"/>
				<path id="路径备份-2" class="st0" d="M39.5,31c-3.4,0-5.5,2.1-5.5,5.5c0,1.9,0.6,3.1,2.5,5.6c1.2,1.5,1.5,2,1.5,2.4
					c0,1.6-1.2,2.5-2.5,2.5c-0.8,0-1.5,0.7-1.5,1.5s0.7,1.5,1.5,1.5c2.8,0,5.5-2,5.5-5.5c0-1.4-0.5-2.3-2.1-4.3
					c-1.6-1.9-1.9-2.6-1.9-3.7c0-1.7,0.8-2.5,2.5-2.5c0.8,0,1.5-0.7,1.5-1.5S40.3,31,39.5,31z"/>
				<path id="路径备份-3" class="st0" d="M53.5,31c-3.4,0-5.5,2.1-5.5,5.5c0,1.9,0.6,3.1,2.5,5.6c1.2,1.5,1.5,2,1.5,2.4
					c0,1.6-1.2,2.5-2.5,2.5c-0.8,0-1.5,0.7-1.5,1.5s0.7,1.5,1.5,1.5c2.8,0,5.5-2,5.5-5.5c0-1.4-0.5-2.3-2.1-4.3
					c-1.6-1.9-1.9-2.6-1.9-3.7c0-1.7,0.8-2.5,2.5-2.5c0.8,0,1.5-0.7,1.5-1.5S54.3,31,53.5,31z"/>
			</g>
		</g>
	</g>
</g>
</svg>
